<svg width="399" height="82" viewBox="0 0 399 82" fill="none" xmlns="http://www.w3.org/2000/svg">
<path d="M122.326 35.2139C122.326 36.536 122.014 37.7832 121.391 38.9555C120.767 40.1279 119.769 41.0883 118.397 41.8366C117.025 42.56 115.267 42.9217 113.122 42.9217H108.407V53.473H104.142V27.4688H113.122C115.117 27.4688 116.801 27.818 118.173 28.5164C119.57 29.1899 120.605 30.1129 121.278 31.2852C121.977 32.4576 122.326 33.7672 122.326 35.2139ZM113.122 39.442C114.743 39.442 115.953 39.0803 116.751 38.3569C117.549 37.6086 117.948 36.5609 117.948 35.2139C117.948 32.3703 116.339 30.9485 113.122 30.9485H108.407V39.442H113.122ZM130.659 35.85C131.283 34.8023 132.106 33.9917 133.129 33.418C134.177 32.8193 135.411 32.52 136.833 32.52V36.9351H135.748C134.077 36.9351 132.805 37.3591 131.932 38.2072C131.084 39.0553 130.659 40.527 130.659 42.6223V53.473H126.394V32.8567H130.659V35.85ZM149.696 53.8098C147.751 53.8098 145.992 53.3732 144.421 52.5002C142.849 51.6022 141.615 50.355 140.717 48.7586C139.819 47.1372 139.37 45.2664 139.37 43.1461C139.37 41.0508 139.831 39.1925 140.754 37.5711C141.677 35.9498 142.937 34.7026 144.533 33.8295C146.129 32.9565 147.913 32.52 149.883 32.52C151.854 32.52 153.638 32.9565 155.234 33.8295C156.83 34.7026 158.09 35.9498 159.013 37.5711C159.936 39.1925 160.397 41.0508 160.397 43.1461C160.397 45.2415 159.923 47.0998 158.976 48.7212C158.028 50.3425 156.731 51.6022 155.084 52.5002C153.463 53.3732 151.667 53.8098 149.696 53.8098ZM149.696 50.1056C150.794 50.1056 151.817 49.8436 152.765 49.3198C153.737 48.796 154.523 48.0102 155.122 46.9626C155.72 45.9149 156.02 44.6428 156.02 43.1461C156.02 41.6495 155.733 40.3898 155.159 39.3671C154.585 38.3195 153.825 37.5337 152.877 37.0099C151.929 36.4861 150.906 36.2242 149.809 36.2242C148.711 36.2242 147.688 36.4861 146.741 37.0099C145.818 37.5337 145.082 38.3195 144.533 39.3671C143.984 40.3898 143.71 41.6495 143.71 43.1461C143.71 45.3662 144.271 47.0873 145.394 48.3096C146.541 49.5069 147.975 50.1056 149.696 50.1056ZM169.59 36.3364V47.7483C169.59 48.5216 169.765 49.0828 170.114 49.4321C170.488 49.7563 171.112 49.9185 171.985 49.9185H174.604V53.473H171.237C169.316 53.473 167.844 53.024 166.822 52.126C165.799 51.228 165.288 49.7688 165.288 47.7483V36.3364H162.855V32.8567H165.288V27.7307H169.59V32.8567H174.604V36.3364H169.59ZM197.431 42.6597C197.431 43.433 197.381 44.1314 197.281 44.755H181.529C181.654 46.4014 182.265 47.7234 183.362 48.7212C184.46 49.7189 185.807 50.2178 187.403 50.2178C189.698 50.2178 191.319 49.2575 192.267 47.3368H196.869C196.246 49.2325 195.111 50.7915 193.465 52.0138C191.843 53.2111 189.823 53.8098 187.403 53.8098C185.433 53.8098 183.662 53.3732 182.09 52.5002C180.543 51.6022 179.321 50.355 178.423 48.7586C177.55 47.1372 177.114 45.2664 177.114 43.1461C177.114 41.0259 177.538 39.1676 178.386 37.5711C179.259 35.9498 180.469 34.7026 182.015 33.8295C183.587 32.9565 185.383 32.52 187.403 32.52C189.349 32.52 191.082 32.944 192.604 33.7921C194.126 34.6402 195.31 35.8375 196.158 37.3841C197.007 38.9057 197.431 40.6642 197.431 42.6597ZM192.978 41.3128C192.953 39.7413 192.392 38.4816 191.294 37.5337C190.197 36.5859 188.837 36.1119 187.216 36.1119C185.744 36.1119 184.485 36.5859 183.437 37.5337C182.389 38.4567 181.766 39.7163 181.566 41.3128H192.978ZM205.894 25.7851V53.473H201.628V25.7851H205.894ZM213.664 30.1253C212.891 30.1253 212.242 29.8634 211.718 29.3396C211.195 28.8158 210.933 28.1672 210.933 27.394C210.933 26.6207 211.195 25.9721 211.718 25.4483C212.242 24.9245 212.891 24.6626 213.664 24.6626C214.412 24.6626 215.048 24.9245 215.572 25.4483C216.096 25.9721 216.358 26.6207 216.358 27.394C216.358 28.1672 216.096 28.8158 215.572 29.3396C215.048 29.8634 214.412 30.1253 213.664 30.1253ZM215.759 32.8567V53.473H211.494V32.8567H215.759ZM230.302 53.8098C228.356 53.8098 226.598 53.3732 225.026 52.5002C223.455 51.6022 222.22 50.355 221.322 48.7586C220.424 47.1372 219.975 45.2664 219.975 43.1461C219.975 41.0508 220.437 39.1925 221.359 37.5711C222.282 35.9498 223.542 34.7026 225.138 33.8295C226.735 32.9565 228.518 32.52 230.489 32.52C232.46 32.52 234.243 32.9565 235.839 33.8295C237.436 34.7026 238.696 35.9498 239.619 37.5711C240.541 39.1925 241.003 41.0508 241.003 43.1461C241.003 45.2415 240.529 47.0998 239.581 48.7212C238.633 50.3425 237.336 51.6022 235.69 52.5002C234.068 53.3732 232.272 53.8098 230.302 53.8098ZM230.302 50.1056C231.399 50.1056 232.422 49.8436 233.37 49.3198C234.343 48.796 235.129 48.0102 235.727 46.9626C236.326 45.9149 236.625 44.6428 236.625 43.1461C236.625 41.6495 236.338 40.3898 235.765 39.3671C235.191 38.3195 234.43 37.5337 233.482 37.0099C232.534 36.4861 231.512 36.2242 230.414 36.2242C229.317 36.2242 228.294 36.4861 227.346 37.0099C226.423 37.5337 225.687 38.3195 225.138 39.3671C224.59 40.3898 224.315 41.6495 224.315 43.1461C224.315 45.3662 224.877 47.0873 225.999 48.3096C227.146 49.5069 228.581 50.1056 230.302 50.1056ZM255.621 32.52C257.243 32.52 258.689 32.8567 259.962 33.5302C261.259 34.2037 262.269 35.2015 262.992 36.5235C263.716 37.8455 264.077 39.442 264.077 41.3128V53.473H259.849V41.9488C259.849 40.103 259.388 38.6936 258.465 37.7208C257.542 36.723 256.282 36.2242 254.686 36.2242C253.089 36.2242 251.817 36.723 250.869 37.7208C249.946 38.6936 249.485 40.103 249.485 41.9488V53.473H245.22V32.8567H249.485V35.2139C250.183 34.3658 251.069 33.7048 252.142 33.2309C253.239 32.7569 254.399 32.52 255.621 32.52ZM287.806 53.7349C286.06 53.7349 284.488 53.4356 283.091 52.8369C281.695 52.2133 280.597 51.3403 279.799 50.2178C279.001 49.0953 278.601 47.7858 278.601 46.2891H283.166C283.266 47.4116 283.703 48.3345 284.476 49.0579C285.274 49.7813 286.384 50.143 287.806 50.143C289.278 50.143 290.425 49.7938 291.248 49.0953C292.071 48.3719 292.483 47.449 292.483 46.3265C292.483 45.4535 292.221 44.7426 291.697 44.1938C291.198 43.645 290.562 43.221 289.789 42.9217C289.041 42.6223 287.993 42.2981 286.646 41.9488C284.95 41.4998 283.565 41.0508 282.493 40.6019C281.445 40.1279 280.547 39.4045 279.799 38.4317C279.05 37.4589 278.676 36.1618 278.676 34.5404C278.676 33.0438 279.05 31.7342 279.799 30.6117C280.547 29.4893 281.595 28.6287 282.942 28.03C284.289 27.4314 285.848 27.132 287.619 27.132C290.138 27.132 292.196 27.7681 293.792 29.0403C295.414 30.2875 296.312 32.0086 296.486 34.2037H291.772C291.697 33.2558 291.248 32.4451 290.425 31.7716C289.602 31.0981 288.517 30.7614 287.17 30.7614C285.948 30.7614 284.95 31.0732 284.176 31.6968C283.403 32.3204 283.017 33.2184 283.017 34.3908C283.017 35.189 283.254 35.85 283.727 36.3738C284.226 36.8727 284.85 37.2718 285.598 37.5711C286.347 37.8705 287.369 38.1947 288.666 38.544C290.388 39.0179 291.784 39.4918 292.857 39.9658C293.955 40.4397 294.877 41.1756 295.626 42.1733C296.399 43.1461 296.786 44.4557 296.786 46.102C296.786 47.4241 296.424 48.6713 295.701 49.8436C295.002 51.016 293.967 51.9639 292.595 52.6873C291.248 53.3857 289.652 53.7349 287.806 53.7349ZM306.795 36.3364V47.7483C306.795 48.5216 306.97 49.0828 307.319 49.4321C307.693 49.7563 308.317 49.9185 309.19 49.9185H311.809V53.473H308.441C306.521 53.473 305.049 53.024 304.026 52.126C303.004 51.228 302.492 49.7688 302.492 47.7483V36.3364H300.06V32.8567H302.492V27.7307H306.795V32.8567H311.809V36.3364H306.795ZM324.683 53.8098C322.737 53.8098 320.978 53.3732 319.407 52.5002C317.836 51.6022 316.601 50.355 315.703 48.7586C314.805 47.1372 314.356 45.2664 314.356 43.1461C314.356 41.0508 314.817 39.1925 315.74 37.5711C316.663 35.9498 317.923 34.7026 319.519 33.8295C321.116 32.9565 322.899 32.52 324.87 32.52C326.84 32.52 328.624 32.9565 330.22 33.8295C331.817 34.7026 333.076 35.9498 333.999 37.5711C334.922 39.1925 335.384 41.0508 335.384 43.1461C335.384 45.2415 334.91 47.0998 333.962 48.7212C333.014 50.3425 331.717 51.6022 330.071 52.5002C328.449 53.3732 326.653 53.8098 324.683 53.8098ZM324.683 50.1056C325.78 50.1056 326.803 49.8436 327.751 49.3198C328.724 48.796 329.509 48.0102 330.108 46.9626C330.707 45.9149 331.006 44.6428 331.006 43.1461C331.006 41.6495 330.719 40.3898 330.145 39.3671C329.572 38.3195 328.811 37.5337 327.863 37.0099C326.915 36.4861 325.892 36.2242 324.795 36.2242C323.697 36.2242 322.675 36.4861 321.727 37.0099C320.804 37.5337 320.068 38.3195 319.519 39.3671C318.97 40.3898 318.696 41.6495 318.696 43.1461C318.696 45.3662 319.257 47.0873 320.38 48.3096C321.527 49.5069 322.962 50.1056 324.683 50.1056ZM343.866 35.85C344.489 34.8023 345.313 33.9917 346.335 33.418C347.383 32.8193 348.618 32.52 350.039 32.52V36.9351H348.954C347.283 36.9351 346.011 37.3591 345.138 38.2072C344.29 39.0553 343.866 40.527 343.866 42.6223V53.473H339.6V32.8567H343.866V35.85ZM372.855 42.6597C372.855 43.433 372.806 44.1314 372.706 44.755H356.954C357.078 46.4014 357.689 47.7234 358.787 48.7212C359.884 49.7189 361.231 50.2178 362.828 50.2178C365.123 50.2178 366.744 49.2575 367.692 47.3368H372.294C371.671 49.2325 370.536 50.7915 368.889 52.0138C367.268 53.2111 365.247 53.8098 362.828 53.8098C360.857 53.8098 359.086 53.3732 357.515 52.5002C355.968 51.6022 354.746 50.355 353.848 48.7586C352.975 47.1372 352.538 45.2664 352.538 43.1461C352.538 41.0259 352.962 39.1676 353.811 37.5711C354.684 35.9498 355.893 34.7026 357.44 33.8295C359.011 32.9565 360.807 32.52 362.828 32.52C364.774 32.52 366.507 32.944 368.029 33.7921C369.55 34.6402 370.735 35.8375 371.583 37.3841C372.431 38.9057 372.855 40.6642 372.855 42.6597ZM368.403 41.3128C368.378 39.7413 367.817 38.4816 366.719 37.5337C365.622 36.5859 364.262 36.1119 362.641 36.1119C361.169 36.1119 359.909 36.5859 358.862 37.5337C357.814 38.4567 357.19 39.7163 356.991 41.3128H368.403ZM381.318 27.4688V53.473H377.053V27.4688H381.318ZM391.895 36.3364V47.7483C391.895 48.5216 392.07 49.0828 392.419 49.4321C392.793 49.7563 393.417 49.9185 394.29 49.9185H396.909V53.473H393.541C391.621 53.473 390.149 53.024 389.126 52.126C388.103 51.228 387.592 49.7688 387.592 47.7483V36.3364H385.16V32.8567H387.592V27.7307H391.895V32.8567H396.909V36.3364H391.895Z" fill="white"/>
<rect opacity="0.2" width="74.8323" height="74.8323" rx="37.4161" fill="white"/>
<rect x="32.739" y="31.1801" width="49.8882" height="49.8882" rx="24.9441" fill="white"/>
</svg>
