<svg width="256" height="52" viewBox="0 0 256 52" fill="none" xmlns="http://www.w3.org/2000/svg">
<path d="M78.464 22.288C78.464 23.136 78.264 23.936 77.864 24.688C77.464 25.44 76.824 26.056 75.944 26.536C75.064 27 73.936 27.232 72.56 27.232H69.536V34H66.8V17.32H72.56C73.84 17.32 74.92 17.544 75.8 17.992C76.696 18.424 77.36 19.016 77.792 19.768C78.24 20.52 78.464 21.36 78.464 22.288ZM72.56 25C73.6 25 74.376 24.768 74.888 24.304C75.4 23.824 75.656 23.152 75.656 22.288C75.656 20.464 74.624 19.552 72.56 19.552H69.536V25H72.56ZM83.8094 22.696C84.2094 22.024 84.7374 21.504 85.3934 21.136C86.0654 20.752 86.8574 20.56 87.7694 20.56V23.392H87.0734C86.0014 23.392 85.1854 23.664 84.6254 24.208C84.0814 24.752 83.8094 25.696 83.8094 27.04V34H81.0734V20.776H83.8094V22.696ZM96.0204 34.216C94.7724 34.216 93.6444 33.936 92.6364 33.376C91.6284 32.8 90.8364 32 90.2604 30.976C89.6844 29.936 89.3964 28.736 89.3964 27.376C89.3964 26.032 89.6924 24.84 90.2844 23.8C90.8764 22.76 91.6844 21.96 92.7084 21.4C93.7324 20.84 94.8764 20.56 96.1404 20.56C97.4044 20.56 98.5484 20.84 99.5724 21.4C100.596 21.96 101.404 22.76 101.996 23.8C102.588 24.84 102.884 26.032 102.884 27.376C102.884 28.72 102.58 29.912 101.972 30.952C101.364 31.992 100.532 32.8 99.4764 33.376C98.4364 33.936 97.2844 34.216 96.0204 34.216ZM96.0204 31.84C96.7244 31.84 97.3804 31.672 97.9884 31.336C98.6124 31 99.1164 30.496 99.5004 29.824C99.8844 29.152 100.076 28.336 100.076 27.376C100.076 26.416 99.8924 25.608 99.5244 24.952C99.1564 24.28 98.6684 23.776 98.0604 23.44C97.4524 23.104 96.7964 22.936 96.0924 22.936C95.3884 22.936 94.7324 23.104 94.1244 23.44C93.5324 23.776 93.0604 24.28 92.7084 24.952C92.3564 25.608 92.1804 26.416 92.1804 27.376C92.1804 28.8 92.5404 29.904 93.2604 30.688C93.9964 31.456 94.9164 31.84 96.0204 31.84ZM108.781 23.008V30.328C108.781 30.824 108.893 31.184 109.117 31.408C109.357 31.616 109.757 31.72 110.317 31.72H111.997V34H109.837C108.605 34 107.661 33.712 107.005 33.136C106.349 32.56 106.021 31.624 106.021 30.328V23.008H104.461V20.776H106.021V17.488H108.781V20.776H111.997V23.008H108.781ZM126.639 27.064C126.639 27.56 126.607 28.008 126.543 28.408H116.439C116.519 29.464 116.911 30.312 117.615 30.952C118.319 31.592 119.183 31.912 120.207 31.912C121.679 31.912 122.719 31.296 123.327 30.064H126.279C125.879 31.28 125.151 32.28 124.095 33.064C123.055 33.832 121.759 34.216 120.207 34.216C118.943 34.216 117.807 33.936 116.799 33.376C115.807 32.8 115.023 32 114.447 30.976C113.887 29.936 113.607 28.736 113.607 27.376C113.607 26.016 113.879 24.824 114.423 23.8C114.983 22.76 115.759 21.96 116.751 21.4C117.759 20.84 118.911 20.56 120.207 20.56C121.455 20.56 122.567 20.832 123.543 21.376C124.519 21.92 125.279 22.688 125.823 23.68C126.367 24.656 126.639 25.784 126.639 27.064ZM123.783 26.2C123.767 25.192 123.407 24.384 122.703 23.776C121.999 23.168 121.127 22.864 120.087 22.864C119.143 22.864 118.335 23.168 117.663 23.776C116.991 24.368 116.591 25.176 116.463 26.2H123.783ZM132.067 16.24V34H129.331V16.24H132.067ZM137.051 19.024C136.555 19.024 136.139 18.856 135.803 18.52C135.467 18.184 135.299 17.768 135.299 17.272C135.299 16.776 135.467 16.36 135.803 16.024C136.139 15.688 136.555 15.52 137.051 15.52C137.531 15.52 137.939 15.688 138.275 16.024C138.611 16.36 138.779 16.776 138.779 17.272C138.779 17.768 138.611 18.184 138.275 18.52C137.939 18.856 137.531 19.024 137.051 19.024ZM138.395 20.776V34H135.659V20.776H138.395ZM147.724 34.216C146.476 34.216 145.348 33.936 144.34 33.376C143.332 32.8 142.54 32 141.964 30.976C141.388 29.936 141.1 28.736 141.1 27.376C141.1 26.032 141.396 24.84 141.988 23.8C142.58 22.76 143.388 21.96 144.412 21.4C145.436 20.84 146.58 20.56 147.844 20.56C149.108 20.56 150.252 20.84 151.276 21.4C152.3 21.96 153.108 22.76 153.7 23.8C154.292 24.84 154.588 26.032 154.588 27.376C154.588 28.72 154.284 29.912 153.676 30.952C153.068 31.992 152.236 32.8 151.18 33.376C150.14 33.936 148.988 34.216 147.724 34.216ZM147.724 31.84C148.428 31.84 149.084 31.672 149.692 31.336C150.316 31 150.82 30.496 151.204 29.824C151.588 29.152 151.78 28.336 151.78 27.376C151.78 26.416 151.596 25.608 151.228 24.952C150.86 24.28 150.372 23.776 149.764 23.44C149.156 23.104 148.5 22.936 147.796 22.936C147.092 22.936 146.436 23.104 145.828 23.44C145.236 23.776 144.764 24.28 144.412 24.952C144.06 25.608 143.884 26.416 143.884 27.376C143.884 28.8 144.244 29.904 144.964 30.688C145.7 31.456 146.62 31.84 147.724 31.84ZM163.964 20.56C165.004 20.56 165.932 20.776 166.748 21.208C167.58 21.64 168.228 22.28 168.692 23.128C169.156 23.976 169.388 25 169.388 26.2V34H166.676V26.608C166.676 25.424 166.38 24.52 165.788 23.896C165.196 23.256 164.388 22.936 163.364 22.936C162.34 22.936 161.524 23.256 160.916 23.896C160.324 24.52 160.028 25.424 160.028 26.608V34H157.292V20.776H160.028V22.288C160.476 21.744 161.044 21.32 161.732 21.016C162.436 20.712 163.18 20.56 163.964 20.56ZM184.609 34.168C183.489 34.168 182.481 33.976 181.585 33.592C180.689 33.192 179.985 32.632 179.473 31.912C178.961 31.192 178.705 30.352 178.705 29.392H181.633C181.697 30.112 181.977 30.704 182.473 31.168C182.985 31.632 183.697 31.864 184.609 31.864C185.553 31.864 186.289 31.64 186.817 31.192C187.345 30.728 187.609 30.136 187.609 29.416C187.609 28.856 187.441 28.4 187.105 28.048C186.785 27.696 186.377 27.424 185.881 27.232C185.401 27.04 184.729 26.832 183.865 26.608C182.777 26.32 181.889 26.032 181.201 25.744C180.529 25.44 179.953 24.976 179.473 24.352C178.993 23.728 178.753 22.896 178.753 21.856C178.753 20.896 178.993 20.056 179.473 19.336C179.953 18.616 180.625 18.064 181.489 17.68C182.353 17.296 183.353 17.104 184.489 17.104C186.105 17.104 187.425 17.512 188.449 18.328C189.489 19.128 190.065 20.232 190.177 21.64H187.153C187.105 21.032 186.817 20.512 186.289 20.08C185.761 19.648 185.065 19.432 184.201 19.432C183.417 19.432 182.777 19.632 182.281 20.032C181.785 20.432 181.537 21.008 181.537 21.76C181.537 22.272 181.689 22.696 181.993 23.032C182.313 23.352 182.713 23.608 183.193 23.8C183.673 23.992 184.329 24.2 185.161 24.424C186.265 24.728 187.161 25.032 187.849 25.336C188.553 25.64 189.145 26.112 189.625 26.752C190.121 27.376 190.369 28.216 190.369 29.272C190.369 30.12 190.137 30.92 189.673 31.672C189.225 32.424 188.561 33.032 187.681 33.496C186.817 33.944 185.793 34.168 184.609 34.168ZM196.789 23.008V30.328C196.789 30.824 196.901 31.184 197.125 31.408C197.365 31.616 197.765 31.72 198.325 31.72H200.005V34H197.845C196.613 34 195.669 33.712 195.013 33.136C194.357 32.56 194.029 31.624 194.029 30.328V23.008H192.469V20.776H194.029V17.488H196.789V20.776H200.005V23.008H196.789ZM208.263 34.216C207.015 34.216 205.887 33.936 204.879 33.376C203.871 32.8 203.079 32 202.503 30.976C201.927 29.936 201.639 28.736 201.639 27.376C201.639 26.032 201.935 24.84 202.527 23.8C203.119 22.76 203.927 21.96 204.951 21.4C205.975 20.84 207.119 20.56 208.383 20.56C209.647 20.56 210.791 20.84 211.815 21.4C212.839 21.96 213.647 22.76 214.239 23.8C214.831 24.84 215.127 26.032 215.127 27.376C215.127 28.72 214.823 29.912 214.215 30.952C213.607 31.992 212.775 32.8 211.719 33.376C210.679 33.936 209.527 34.216 208.263 34.216ZM208.263 31.84C208.967 31.84 209.623 31.672 210.231 31.336C210.855 31 211.359 30.496 211.743 29.824C212.127 29.152 212.319 28.336 212.319 27.376C212.319 26.416 212.135 25.608 211.767 24.952C211.399 24.28 210.911 23.776 210.303 23.44C209.695 23.104 209.039 22.936 208.335 22.936C207.631 22.936 206.975 23.104 206.367 23.44C205.775 23.776 205.303 24.28 204.951 24.952C204.599 25.608 204.423 26.416 204.423 27.376C204.423 28.8 204.783 29.904 205.503 30.688C206.239 31.456 207.159 31.84 208.263 31.84ZM220.567 22.696C220.967 22.024 221.495 21.504 222.151 21.136C222.823 20.752 223.615 20.56 224.527 20.56V23.392H223.831C222.759 23.392 221.943 23.664 221.383 24.208C220.839 24.752 220.567 25.696 220.567 27.04V34H217.831V20.776H220.567V22.696ZM239.162 27.064C239.162 27.56 239.13 28.008 239.066 28.408H228.962C229.042 29.464 229.434 30.312 230.138 30.952C230.842 31.592 231.706 31.912 232.73 31.912C234.202 31.912 235.242 31.296 235.85 30.064H238.802C238.402 31.28 237.674 32.28 236.618 33.064C235.578 33.832 234.282 34.216 232.73 34.216C231.466 34.216 230.33 33.936 229.322 33.376C228.33 32.8 227.546 32 226.97 30.976C226.41 29.936 226.13 28.736 226.13 27.376C226.13 26.016 226.402 24.824 226.946 23.8C227.506 22.76 228.282 21.96 229.274 21.4C230.282 20.84 231.434 20.56 232.73 20.56C233.978 20.56 235.09 20.832 236.066 21.376C237.042 21.92 237.802 22.688 238.346 23.68C238.89 24.656 239.162 25.784 239.162 27.064ZM236.306 26.2C236.29 25.192 235.93 24.384 235.226 23.776C234.522 23.168 233.65 22.864 232.61 22.864C231.666 22.864 230.858 23.168 230.186 23.776C229.514 24.368 229.114 25.176 228.986 26.2H236.306ZM244.591 17.32V34H241.855V17.32H244.591ZM251.375 23.008V30.328C251.375 30.824 251.487 31.184 251.711 31.408C251.951 31.616 252.351 31.72 252.911 31.72H254.591V34H252.431C251.199 34 250.255 33.712 249.599 33.136C248.943 32.56 248.615 31.624 248.615 30.328V23.008H247.055V20.776H248.615V17.488H251.375V20.776H254.591V23.008H251.375Z" fill="#FA7275"/>
<rect opacity="0.2" width="48" height="48" rx="24" fill="#FA7275"/>
<rect x="21" y="20" width="32" height="32" rx="16" fill="#FA7275"/>
</svg>
